<svg width="100" height="100" viewBox="0 0 100 100" fill="none" xmlns="http://www.w3.org/2000/svg">
<rect width="100" height="100" rx="50" fill="#CE2029" fill-opacity="0.12"/>
<path d="M2.484 67H45.54V54.764H21.344L33.948 42.16C37.0147 39.0933 39.5293 35.8733 41.492 32.5C43.516 29.1267 44.528 25.4773 44.528 21.552C44.528 18.3013 43.9453 15.4493 42.78 12.996C41.6147 10.4813 40.02 8.36533 37.996 6.648C36.0333 4.86933 33.764 3.55066 31.188 2.69199C28.6733 1.772 26.036 1.312 23.276 1.312C18.86 1.312 14.72 2.44666 10.856 4.716C7.05333 6.924 4.10933 10.328 2.024 14.928L12.696 21.184C13.7387 18.8533 15.1493 17.0133 16.928 15.664C18.768 14.3147 20.9453 13.64 23.46 13.64C25.9133 13.64 27.9067 14.4067 29.44 15.94C31.0347 17.412 31.832 19.436 31.832 22.012C31.832 24.1587 31.1267 26.3053 29.716 28.452C28.3053 30.5987 26.5573 32.7453 24.472 34.892L2.484 57.524V67Z" fill="#CE2029"/>
</svg>
