<svg width="100" height="100" viewBox="0 0 100 100" fill="none" xmlns="http://www.w3.org/2000/svg">
<rect width="100" height="100" rx="50" fill="#CE2029" fill-opacity="0.12"/>
<path d="M32.476 28.728L44.528 13.088V2.6H4.048V14.468H29.256L16.56 31.028L21.436 38.388H24.196C27.508 38.388 30.0533 39.216 31.832 40.872C33.6107 42.4667 34.5 44.552 34.5 47.128C34.5 49.7653 33.6107 51.8813 31.832 53.476C30.0533 55.0707 27.508 55.868 24.196 55.868C21.1293 55.868 18.676 55.224 16.836 53.936C15.0573 52.648 13.7693 50.808 12.972 48.416L2.116 54.672C3.956 59.272 6.86933 62.7067 10.856 64.976C14.904 67.184 19.3507 68.288 24.196 68.288C27.2627 68.288 30.176 67.828 32.936 66.908C35.696 65.988 38.1187 64.6387 40.204 62.86C42.3507 61.0813 44.0373 58.8733 45.264 56.236C46.552 53.5987 47.196 50.5627 47.196 47.128C47.196 44.736 46.828 42.5587 46.092 40.596C45.356 38.6333 44.3133 36.8853 42.964 35.352C41.676 33.7573 40.112 32.408 38.272 31.304C36.4933 30.2 34.5613 29.3413 32.476 28.728Z" fill="#CE2029"/>
</svg>
