<svg width="16" height="16" viewBox="0 0 16 16" fill="none" xmlns="http://www.w3.org/2000/svg">
<path d="M0 2C0 0.895431 0.895431 0 2 0H14C15.1046 0 16 0.895431 16 2V14C16 15.1046 15.1046 16 14 16H2C0.895431 16 0 15.1046 0 14V2Z" fill="#CE2029"/>
<path d="M6.77384 6.25063L9.84741 9.3242C9.91281 9.38959 9.94551 9.48769 9.94551 9.58578V13.3133C9.94551 13.673 9.65123 13.9999 9.25886 13.9999H6.74115C6.38147 13.9999 6.0545 13.7057 6.0545 13.3133V9.94545H2.68665C2.32698 9.94545 2 9.65117 2 9.2588V6.74109C2 6.38142 2.29428 6.05444 2.68665 6.05444H6.0545L6.77384 6.25063Z" fill="#F26F68"/>
<path d="M13.3133 6.0545H9.9455V2.68665C9.9455 2.32698 9.65122 2 9.25885 2H6.74114C6.38147 2 6.05449 2.29428 6.05449 2.68665V6.0545H2.68665C2.32697 6.0545 2 6.34877 2 6.74114V9.25886C2 9.61853 2.29428 9.9455 2.68665 9.9455H6.05449V13.3134C6.05449 13.673 6.34877 14 6.74114 14H9.25885C9.61852 14 9.9455 13.7057 9.9455 13.3134V9.58583C9.9455 9.48774 9.9128 9.38965 9.84741 9.32425L6.77384 6.25068V2.71935H9.25885V6.41417C9.25885 6.61035 9.42234 6.77384 9.61852 6.77384H13.3133V9.25886H11.6131C11.4169 9.25886 11.2534 9.42234 11.2534 9.61853C11.2534 9.81471 11.4169 9.9782 11.6131 9.9782H13.3133C13.673 9.9782 14 9.68392 14 9.29155V6.77384C14 6.34877 13.7057 6.0545 13.3133 6.0545ZM9.25885 9.71662V13.248H6.77384V9.58583C6.77384 9.38965 6.61035 9.22616 6.41417 9.22616H2.71935V6.74114H6.28337L9.25885 9.71662Z" fill="white"/>
</svg>
