<svg width="1366" height="685" viewBox="0 0 1366 685" fill="none" xmlns="http://www.w3.org/2000/svg">
<g clip-path="url(#clip0)">
<rect width="1366" height="685" fill="white"/>
<circle opacity="0.4" cx="1220" cy="476" r="416" fill="url(#paint0_radial)" fill-opacity="0.6"/>
<circle opacity="0.4" cx="133" r="416" fill="url(#paint1_radial)" fill-opacity="0.6"/>
<circle opacity="0.2" cx="1166" cy="-4" r="416" fill="url(#paint2_radial)" fill-opacity="0.6"/>
<circle opacity="0.4" cx="218" cy="647" r="416" fill="url(#paint3_radial)" fill-opacity="0.6"/>
<path opacity="0.2" d="M605.5 -155.5C605.5 5.76797 474.99 136.5 314 136.5C153.01 136.5 22.5 5.76797 22.5 -155.5C22.5 -316.768 153.01 -447.5 314 -447.5C474.99 -447.5 605.5 -316.768 605.5 -155.5Z" stroke="#F26F68"/>
<path opacity="0.2" d="M1622.5 424C1622.5 602.113 1478.33 746.5 1300.5 746.5C1122.67 746.5 978.5 602.113 978.5 424C978.5 245.887 1122.67 101.5 1300.5 101.5C1478.33 101.5 1622.5 245.887 1622.5 424Z" stroke="#5FCCF8"/>
<circle opacity="0.2" cx="167.5" cy="-61.5" r="292" stroke="#F26F68"/>
<circle opacity="0.2" cx="77.5" cy="868.5" r="292" stroke="#F26F68"/>
<circle opacity="0.2" cx="1139" cy="528" r="322.5" stroke="#5FCCF8"/>
</g>
<defs>
<radialGradient id="paint0_radial" cx="0" cy="0" r="1" gradientUnits="userSpaceOnUse" gradientTransform="translate(1220 476) rotate(90) scale(416)">
<stop stop-color="#F4675B" stop-opacity="0.5"/>
<stop offset="1" stop-color="#F4675B" stop-opacity="0"/>
</radialGradient>
<radialGradient id="paint1_radial" cx="0" cy="0" r="1" gradientUnits="userSpaceOnUse" gradientTransform="translate(133) rotate(90) scale(416)">
<stop stop-color="#F4675B" stop-opacity="0.5"/>
<stop offset="1" stop-color="#F4675B" stop-opacity="0"/>
</radialGradient>
<radialGradient id="paint2_radial" cx="0" cy="0" r="1" gradientUnits="userSpaceOnUse" gradientTransform="translate(1166 -4) rotate(90) scale(416)">
<stop stop-color="#5FCCF8"/>
<stop offset="1" stop-color="#5FCCF8" stop-opacity="0"/>
</radialGradient>
<radialGradient id="paint3_radial" cx="0" cy="0" r="1" gradientUnits="userSpaceOnUse" gradientTransform="translate(218 647) rotate(90) scale(416)">
<stop stop-color="#5FCCF8"/>
<stop offset="1" stop-color="#5FCCF8" stop-opacity="0"/>
</radialGradient>
<clipPath id="clip0">
<rect width="1366" height="685" fill="white"/>
</clipPath>
</defs>
</svg>
