<svg width="91" height="24" viewBox="0 0 91 24" fill="none" xmlns="http://www.w3.org/2000/svg">
<g clip-path="url(#clip0)">
<path d="M75.9891 8.50126L82.1362 14.6484C82.267 14.7792 82.3324 14.9754 82.3324 15.1716V22.6266C82.3324 23.3459 81.7439 23.9999 80.9591 23.9999H75.9237C75.2044 23.9999 74.5504 23.4113 74.5504 22.6266V15.8909H67.8147C67.0954 15.8909 66.4414 15.3023 66.4414 14.5176V9.48218C66.4414 8.76284 67.03 8.10889 67.8147 8.10889H74.5504L75.9891 8.50126Z" fill="#F26F68"/>
<path d="M89.0681 8.10899H82.3324V1.3733C82.3324 0.653951 81.7438 0 80.9591 0H75.9237C75.2043 0 74.5504 0.588556 74.5504 1.3733V8.10899H67.8147C67.0954 8.10899 66.4414 8.69755 66.4414 9.48229V14.5177C66.4414 15.2371 67.03 15.891 67.8147 15.891H74.5504V22.6267C74.5504 23.346 75.1389 24 75.9237 24H80.9591C81.6785 24 82.3324 23.4114 82.3324 22.6267V15.1717C82.3324 14.9755 82.267 14.7793 82.1362 14.6485L75.9891 8.50136V1.43869H80.9591V8.82834C80.9591 9.22071 81.2861 9.54768 81.6785 9.54768H89.0681V14.5177H85.6676C85.2752 14.5177 84.9482 14.8447 84.9482 15.2371C84.9482 15.6294 85.2752 15.9564 85.6676 15.9564H89.0681C89.7874 15.9564 90.4414 15.3678 90.4414 14.5831V9.54768C90.4414 8.69755 89.8528 8.10899 89.0681 8.10899ZM80.9591 15.4332V22.4959H75.9891V15.1717C75.9891 14.7793 75.6621 14.4523 75.2697 14.4523H67.8801V9.48229H75.0082L80.9591 15.4332Z" fill="#CE2029"/>
<path d="M9.80926 6.27787C10.7902 6.86643 11.5749 7.65117 12.1635 8.63209C12.752 9.61302 13.0136 10.7247 13.0136 11.9672C13.0136 13.2097 12.752 14.3215 12.2289 15.3024C11.7057 16.2833 10.9864 17.0681 10.0708 17.6566C9.15531 18.2452 8.10899 18.5067 6.99727 18.5067C6.08174 18.5067 5.23161 18.3106 4.44687 17.9182C3.66212 17.5258 3.00817 17.0027 2.41962 16.3487V22.692C2.41962 23.0844 2.28883 23.346 2.09264 23.5422C1.89646 23.7384 1.56948 23.8691 1.24251 23.8691C0.915531 23.8691 0.588556 23.7384 0.39237 23.5422C0.196185 23.346 0 23.1498 0 22.7574V11.9672C0 10.7247 0.26158 9.61302 0.850136 8.63209C1.43869 7.65117 2.22343 6.86643 3.20436 6.27787C4.18529 5.68931 5.297 5.42773 6.47411 5.42773C7.65122 5.42773 8.82833 5.68931 9.80926 6.27787ZM8.63215 15.8256C9.2861 15.4332 9.74387 14.91 10.1362 14.2561C10.5286 13.6021 10.6594 12.8174 10.6594 12.0326C10.6594 11.1825 10.4632 10.4632 10.1362 9.74381C9.80926 9.02446 9.2861 8.5667 8.63215 8.17433C7.9782 7.78196 7.25885 7.58577 6.47411 7.58577C5.68937 7.58577 4.97003 7.78196 4.31607 8.17433C3.66212 8.5667 3.20436 9.08986 2.81199 9.74381C2.41962 10.3978 2.28883 11.1825 2.28883 12.0326C2.28883 12.8828 2.48501 13.6021 2.81199 14.2561C3.20436 14.91 3.66212 15.4332 4.31607 15.8256C4.97003 16.2179 5.68937 16.4141 6.47411 16.4141C7.25885 16.4141 7.9782 16.2179 8.63215 15.8256Z" fill="#383838"/>
<path d="M17.8526 17.9183C17.3295 17.5259 16.8717 17.0027 16.6101 16.3488C16.2831 15.6948 16.1523 14.9101 16.1523 14.1253V1.17711C16.1523 0.850136 16.2831 0.523161 16.4793 0.326975C16.6755 0.13079 16.9371 0 17.3295 0C17.7218 0 17.9834 0.13079 18.1796 0.326975C18.3758 0.523161 18.5066 0.850136 18.5066 1.17711V14.0599C18.5066 14.6485 18.6374 15.1063 18.8335 15.4986C19.0297 15.891 19.3567 16.0872 19.6837 16.0872H20.2722C20.5992 16.0872 20.8608 16.218 21.057 16.4142C21.2532 16.6104 21.3839 16.9373 21.3839 17.2643C21.3839 17.5913 21.2532 17.9183 20.9262 18.1144C20.5992 18.3106 20.2722 18.4414 19.7491 18.4414H19.6837C18.9643 18.4414 18.3758 18.2452 17.8526 17.9183Z" fill="#383838"/>
<path d="M32.1091 6.27795C33.09 6.86651 33.8748 7.65125 34.4633 8.63217C35.0519 9.6131 35.3135 10.7248 35.3135 11.9673V17.2643C35.3135 17.5913 35.1827 17.9183 34.9865 18.1145C34.7903 18.3107 34.4633 18.4414 34.1364 18.4414C33.8094 18.4414 33.4824 18.3107 33.2862 18.1145C33.09 17.9183 32.9592 17.5913 32.9592 17.2643V16.4142C32.4361 17.0681 31.7167 17.5913 30.932 17.9837C30.1473 18.376 29.2971 18.5722 28.3816 18.5722C27.2699 18.5722 26.2235 18.3107 25.308 17.7221C24.3925 17.1335 23.6731 16.3488 23.15 15.3679C22.6268 14.3869 22.3652 13.2752 22.3652 12.0327C22.3652 10.7902 22.6268 9.6785 23.2154 8.69757C23.8039 7.71664 24.5887 6.9319 25.5696 6.34334C26.5505 5.75479 27.6622 5.49321 28.9047 5.49321C30.0165 5.42781 31.1282 5.68939 32.1091 6.27795ZM30.9974 15.8256C31.6513 15.4333 32.1091 14.9101 32.5015 14.2562C32.8938 13.6022 33.0246 12.8175 33.0246 12.0327C33.0246 11.1826 32.8285 10.4632 32.5015 9.74389C32.1745 9.02454 31.6513 8.56678 30.9974 8.17441C30.3434 7.78204 29.6241 7.58585 28.8393 7.58585C28.0546 7.58585 27.3353 7.78204 26.6813 8.17441C26.0274 8.56678 25.5696 9.08994 25.1772 9.74389C24.7849 10.3978 24.6541 11.1826 24.6541 12.0327C24.6541 12.8829 24.8502 13.6022 25.1772 14.2562C25.5696 14.9101 26.0274 15.4333 26.6813 15.8256C27.3353 16.218 28.0546 16.4142 28.8393 16.4142C29.6241 16.4142 30.3434 16.218 30.9974 15.8256Z" fill="#383838"/>
<path d="M40.611 18.0491C39.6954 17.7221 38.9107 17.2643 38.3875 16.7412C38.1913 16.545 38.0605 16.2834 38.0605 16.0218C38.0605 15.6294 38.1913 15.3679 38.5183 15.1063C38.8453 14.9101 39.1069 14.7793 39.3685 14.7793C39.6954 14.7793 39.957 14.9101 40.284 15.2371C40.611 15.564 41.0033 15.8256 41.6573 16.0872C42.2458 16.3488 42.8998 16.4796 43.5537 16.4796C44.4693 16.4796 45.1232 16.3488 45.6464 16.0218C46.1696 15.6948 46.3657 15.3025 46.3657 14.8447C46.3657 14.3869 46.1042 13.9292 45.6464 13.6022C45.1886 13.2752 44.3385 13.0136 43.1614 12.8174C40.1532 12.2289 38.6491 10.9864 38.6491 9.08993C38.6491 8.30519 38.8453 7.65124 39.3031 7.12808C39.7608 6.60492 40.3494 6.21254 41.0687 5.95096C41.7881 5.68938 42.5728 5.55859 43.423 5.55859C44.4693 5.55859 45.3848 5.75478 46.1695 6.08175C46.9543 6.40873 47.6082 6.8665 48.066 7.45505C48.2622 7.71663 48.393 7.97821 48.393 8.23979C48.393 8.50137 48.2622 8.76295 48.0006 8.95914C47.8044 9.08993 47.6082 9.15532 47.3467 9.15532C46.9543 9.15532 46.5619 9.02453 46.2349 8.69756C45.8426 8.30519 45.4502 8.109 44.9924 7.91282C44.5347 7.78203 44.0115 7.71663 43.3576 7.71663C42.6382 7.71663 42.0497 7.84742 41.5919 8.109C41.1341 8.37058 40.8725 8.69756 40.8725 9.15532C40.8725 9.4823 40.9379 9.74388 41.1341 9.94006C41.2649 10.1363 41.5919 10.3324 42.0497 10.5286C42.5074 10.7248 43.096 10.8556 43.9461 11.0518C45.6464 11.3788 46.8889 11.9019 47.6082 12.4905C48.3276 13.079 48.6546 13.9292 48.6546 14.8447C48.6546 15.564 48.4584 16.218 48.066 16.8066C47.6736 17.3951 47.0851 17.8529 46.3003 18.1798C45.5156 18.5068 44.6001 18.703 43.5537 18.703C42.5728 18.5068 41.5265 18.376 40.611 18.0491Z" fill="#383838"/>
<path d="M57.9392 16.414C58.1354 16.6101 58.2662 16.9371 58.2662 17.2641C58.2662 17.5911 58.1354 17.918 57.8738 18.1142C57.6122 18.3104 57.2853 18.4412 56.8929 18.4412H56.4351C55.6504 18.4412 54.931 18.245 54.3425 17.8526C53.6885 17.4603 53.2308 16.8717 52.8384 16.2178C52.446 15.4984 52.3152 14.7137 52.3152 13.8635V8.04338H51.2035C50.8765 8.04338 50.615 7.97799 50.4188 7.7818C50.2226 7.58562 50.0918 7.32404 50.0918 7.06245C50.0918 6.73548 50.2226 6.4739 50.4188 6.27771C50.615 6.08153 50.8765 6.01613 51.2035 6.01613H52.3152V2.61559C52.3152 2.28861 52.446 1.96164 52.6422 1.76545C52.8384 1.56927 53.1654 1.43848 53.4923 1.43848C53.8193 1.43848 54.1463 1.56927 54.3425 1.76545C54.5387 1.96164 54.6694 2.22322 54.6694 2.61559V6.01613H56.6967C57.0237 6.01613 57.2853 6.08153 57.4814 6.27771C57.6776 6.4739 57.8084 6.73548 57.8084 7.06245C57.8084 7.32404 57.6776 7.58562 57.4814 7.7818C57.2853 7.97799 57.0237 8.04338 56.6967 8.04338H54.6694V13.8635C54.6694 14.5175 54.8656 15.0407 55.1926 15.433C55.5196 15.8254 55.9774 16.087 56.4351 16.087H57.2199C57.5468 16.087 57.743 16.2178 57.9392 16.414Z" fill="#383838"/>
</g>
<defs>
<clipPath id="clip0">
<rect width="90.4414" height="24" fill="white"/>
</clipPath>
</defs>
</svg>
