<svg width="61" height="22" viewBox="0 0 61 22" fill="none" xmlns="http://www.w3.org/2000/svg">
<path d="M53.3393 14.7541C44.233 14.9499 35.7142 18.8666 26.6079 19.3562C23.9641 19.4541 21.3203 19.1603 19.2641 17.9853C22.9849 17.3001 26.5099 16.0271 29.1537 13.579C31.9935 11.0334 32.2871 6.33333 30.5246 3.00414C28.86 -0.129218 24.6495 -0.227135 21.712 0.556204C14.7597 2.22064 10.0598 10.5436 13.9764 16.4185C9.668 16.7122 5.35963 16.4185 1.14919 16.6145C0.26793 16.7122 0.26793 17.9852 1.2471 17.9852C5.55547 18.2789 10.7451 18.6706 15.8368 18.3768C16.1305 18.5728 16.4243 18.8666 16.718 19.0623C27.0973 26.3081 42.2745 17.2018 53.4371 16.9081C54.71 16.8102 54.71 14.6561 53.3393 14.7541ZM14.8576 12.4039C13.7805 8.38943 17.3056 4.96232 20.5368 3.29757C23.7681 1.63297 28.3702 1.63297 29.4473 5.84342C30.7202 10.7393 26.5098 13.6766 22.4952 14.9497C20.6347 15.5372 18.8722 15.9289 17.0118 16.1247C15.9349 15.1456 15.2494 13.9706 14.8576 12.4039Z" fill="#CE2029"/>
<path d="M59.9987 14.8493C58.6281 13.968 57.3551 13.0868 56.0822 12.2057C55.0051 11.4223 53.928 10.5411 52.6551 10.2473C51.6759 9.95358 50.6968 11.4223 51.578 12.1076C52.6551 12.8909 53.8301 13.5764 54.9074 14.2618C55.6907 14.7515 56.474 15.3389 57.1593 15.8285C56.376 16.2201 55.5926 16.5139 54.8093 16.9056C54.2218 17.1993 53.5364 17.4931 52.9489 17.7868C52.753 17.8847 52.5572 18.0806 52.4591 18.2764C52.1654 18.6681 52.3614 18.4724 52.4591 18.3743C52.0676 18.6681 52.0676 19.6472 52.753 19.5493C52.9489 19.6472 53.1445 19.6472 53.4383 19.6472C54.1237 19.4514 54.9072 19.1577 55.5925 18.8639C57.0614 18.2762 58.53 17.6887 59.901 16.9056C60.6842 16.3182 60.6842 15.241 59.9987 14.8493Z" fill="#CE2029"/>
</svg>
