<svg width="16" height="16" viewBox="0 0 16 16" fill="none" xmlns="http://www.w3.org/2000/svg">
<path d="M8 0.529785C3.875 0.529785 0.5 3.89728 0.5 8.04479C0.5 11.7948 3.245 14.9073 6.83 15.4698V10.2198H4.925V8.04479H6.83V6.38729C6.83 4.50479 7.9475 3.46978 9.665 3.46978C10.4825 3.46978 11.3375 3.61228 11.3375 3.61228V5.46478H10.3925C9.4625 5.46478 9.17 6.04228 9.17 6.63478V8.04479H11.255L10.9175 10.2198H9.17V15.4698C10.9373 15.1907 12.5467 14.2889 13.7074 12.9273C14.8682 11.5657 15.504 9.83402 15.5 8.04479C15.5 3.89728 12.125 0.529785 8 0.529785Z" fill="#424242"/>
</svg>
