<svg width="14" height="14" viewBox="0 0 14 14" fill="none" xmlns="http://www.w3.org/2000/svg">
<path d="M6.33325 4.99992H7.66659V3.66659H6.33325V4.99992ZM6.99992 12.3333C4.05992 12.3333 1.66659 9.93992 1.66659 6.99992C1.66659 4.05992 4.05992 1.66659 6.99992 1.66659C9.93992 1.66659 12.3333 4.05992 12.3333 6.99992C12.3333 9.93992 9.93992 12.3333 6.99992 12.3333ZM6.99992 0.333252C6.12444 0.333252 5.25753 0.50569 4.4487 0.840722C3.63986 1.17575 2.90493 1.66682 2.28587 2.28587C1.03563 3.53612 0.333252 5.23181 0.333252 6.99992C0.333252 8.76803 1.03563 10.4637 2.28587 11.714C2.90493 12.333 3.63986 12.8241 4.4487 13.1591C5.25753 13.4941 6.12444 13.6666 6.99992 13.6666C8.76803 13.6666 10.4637 12.9642 11.714 11.714C12.9642 10.4637 13.6666 8.76803 13.6666 6.99992C13.6666 6.12444 13.4941 5.25753 13.1591 4.4487C12.8241 3.63986 12.333 2.90493 11.714 2.28587C11.0949 1.66682 10.36 1.17575 9.55114 0.840722C8.7423 0.50569 7.8754 0.333252 6.99992 0.333252ZM6.33325 10.3333H7.66659V6.33325H6.33325V10.3333Z" fill="#424242"/>
</svg>
