<svg width="16" height="13" viewBox="0 0 16 13" fill="none" xmlns="http://www.w3.org/2000/svg">
<path d="M15.8453 1.5C15.2678 1.7625 14.6453 1.935 14.0003 2.0175C14.6603 1.62 15.1703 0.99 15.4103 0.2325C14.7878 0.6075 14.0978 0.87 13.3703 1.02C12.7778 0.375 11.9453 0 11.0003 0C9.23777 0 7.79777 1.44 7.79777 3.2175C7.79777 3.4725 7.82777 3.72 7.88027 3.9525C5.21027 3.8175 2.83277 2.535 1.25027 0.5925C0.972773 1.065 0.815273 1.62 0.815273 2.205C0.815273 3.3225 1.37777 4.3125 2.24777 4.875C1.71527 4.875 1.22027 4.725 0.785273 4.5C0.785273 4.5 0.785273 4.5 0.785273 4.5225C0.785273 6.0825 1.89527 7.3875 3.36527 7.68C3.09527 7.755 2.81027 7.7925 2.51777 7.7925C2.31527 7.7925 2.11277 7.77 1.91777 7.7325C2.32277 9 3.50027 9.945 4.91777 9.9675C3.82277 10.8375 2.43527 11.3475 0.920273 11.3475C0.665273 11.3475 0.410273 11.3325 0.155273 11.3025C1.58027 12.2175 3.27527 12.75 5.09027 12.75C11.0003 12.75 14.2478 7.845 14.2478 3.5925C14.2478 3.45 14.2478 3.315 14.2403 3.1725C14.8703 2.7225 15.4103 2.1525 15.8453 1.5Z" fill="#424242"/>
</svg>
